M48
;GenerationSoftware,Autodesk,EAGLE,9.6.2*%
;CreationDate,2024-06-12T15:16:21Z*%
FMAT,2
ICI,OFF
METRIC,TZ,000.000
T6C0.350
T5C1.000
T4C1.016
T3C1.500
T2C2.000
T1C2.692
%
G90
M71
T1
X144653Y15621
X144780Y2159
X2159Y15621
X2159Y2159
T2
X17573Y3227
X17573Y14478
T3
X10591Y3228
X10541Y14478
X10541Y10728
X10541Y6978
X103832Y13775
X103832Y4868
T4
X80010Y13970
X63500Y13970
X66040Y13970
X68580Y13970
X74930Y3810
X77470Y3810
X80010Y3810
X82550Y3810
X85090Y3810
X87630Y3810
X74930Y13970
X77470Y13970
X82550Y13970
X85090Y13970
X87630Y13970
X3556Y11557
X3556Y9017
X3556Y6477
T5
X40259Y14224
X37719Y14224
T6
X120015Y2540
X121412Y8382
X73660Y10160
X61087Y11811
X60071Y9398
X59817Y2286
X41148Y1778
X51308Y9144
X56388Y7874
X49911Y11684
X42418Y1524
X55118Y13335
X37719Y8509
X22733Y10160
X99568Y2667
X126873Y11176
X67945Y6223
X72771Y5842
X90043Y5715
X90170Y11176
X120523Y10160
X126746Y7239
X52451Y3048
X34671Y8636
X21717Y14478
X42926Y11684
X6223Y15494
X114173Y10541
X114427Y3175
X126619Y3429
X14605Y14224
X109347Y14224
X121412Y14605
X14478Y3302
X14732Y8890
X51181Y14859
X99441Y15240
X58928Y3429
X40640Y5080
M30