G04 EAGLE Gerber RS-274X export*
G75*
%MOMM*%
%FSLAX34Y34*%
%LPD*%
%INSolderpaste Top*%
%IPPOS*%
%AMOC8*
5,1,8,0,0,1.08239X$1,22.5*%
G01*
%ADD10R,1.450000X1.150000*%
%ADD11R,1.150000X1.450000*%
%ADD12R,0.700000X1.525000*%
%ADD13R,1.200000X0.600000*%
%ADD14R,1.050000X1.200000*%
%ADD15R,0.900000X1.400000*%
%ADD16R,1.300000X1.500000*%
%ADD17R,1.500000X1.300000*%
%ADD18R,1.525000X0.450000*%
%ADD19R,1.230000X1.800000*%
%ADD20R,1.800000X1.230000*%


D10*
X481330Y48370D03*
X481330Y30370D03*
D11*
X563990Y30480D03*
X545990Y30480D03*
X252620Y86360D03*
X270620Y86360D03*
X321420Y124460D03*
X303420Y124460D03*
D12*
X513080Y61780D03*
X525780Y61780D03*
X538480Y61780D03*
X551180Y61780D03*
X563880Y61780D03*
X576580Y61780D03*
X589280Y61780D03*
X589280Y116020D03*
X576580Y116020D03*
X563880Y116020D03*
X551180Y116020D03*
X538480Y116020D03*
X525780Y116020D03*
X513080Y116020D03*
D13*
X324920Y76860D03*
X324920Y86360D03*
X324920Y95860D03*
X299920Y95860D03*
X299920Y86360D03*
X299920Y76860D03*
D14*
X660400Y47600D03*
X660400Y28600D03*
X970280Y27330D03*
X970280Y46330D03*
D15*
X321920Y45720D03*
X302920Y45720D03*
D16*
X563270Y151130D03*
X582270Y151130D03*
X271120Y124460D03*
X252120Y124460D03*
X269850Y45720D03*
X250850Y45720D03*
D17*
X698500Y28600D03*
X698500Y47600D03*
X925830Y47600D03*
X925830Y28600D03*
X615950Y27330D03*
X615950Y46330D03*
D13*
X449780Y150470D03*
X449780Y140970D03*
X449780Y131470D03*
X474780Y131470D03*
X474780Y150470D03*
D18*
X1249740Y55690D03*
X1249740Y62190D03*
X1249740Y68690D03*
X1249740Y75190D03*
X1249740Y81690D03*
X1249740Y88190D03*
X1249740Y94690D03*
X1249740Y101190D03*
X1249740Y107690D03*
X1249740Y114190D03*
X1249740Y120690D03*
X1249740Y127190D03*
X1178500Y127190D03*
X1178500Y120690D03*
X1178500Y114190D03*
X1178500Y107690D03*
X1178500Y101190D03*
X1178500Y94690D03*
X1178500Y88190D03*
X1178500Y81690D03*
X1178500Y75190D03*
X1178500Y68690D03*
X1178500Y62190D03*
X1178500Y55690D03*
D19*
X447040Y52470D03*
X447040Y26270D03*
D20*
X1216260Y25400D03*
X1242460Y25400D03*
X1144670Y151130D03*
X1118470Y151130D03*
D11*
X1182480Y25400D03*
X1164480Y25400D03*
X1175910Y151130D03*
X1193910Y151130D03*
M02*
