G04 EAGLE Gerber RS-274X export*
G75*
%MOMM*%
%FSLAX34Y34*%
%LPD*%
%INSoldermask Top*%
%IPPOS*%
%AMOC8*
5,1,8,0,0,1.08239X$1,22.5*%
G01*
%ADD10C,2.895600*%
%ADD11R,1.653200X1.353200*%
%ADD12R,1.353200X1.653200*%
%ADD13R,0.903200X1.728200*%
%ADD14R,1.403200X0.803200*%
%ADD15R,1.253200X1.403200*%
%ADD16R,1.103200X1.603200*%
%ADD17R,1.503200X1.703200*%
%ADD18C,2.453200*%
%ADD19R,2.453200X2.453200*%
%ADD20C,3.203200*%
%ADD21C,1.727200*%
%ADD22R,1.703200X1.503200*%
%ADD23C,0.203200*%
%ADD24C,1.711200*%
%ADD25R,1.728200X0.653200*%
%ADD26R,1.433200X2.003200*%
%ADD27R,2.003200X1.433200*%
%ADD28C,0.959600*%


D10*
X1446530Y156210D03*
X1447800Y21590D03*
X21590Y156210D03*
X21590Y21590D03*
D11*
X481330Y48370D03*
X481330Y30370D03*
D12*
X563990Y30480D03*
X545990Y30480D03*
X252620Y86360D03*
X270620Y86360D03*
X321420Y124460D03*
X303420Y124460D03*
D13*
X513080Y61780D03*
X525780Y61780D03*
X538480Y61780D03*
X551180Y61780D03*
X563880Y61780D03*
X576580Y61780D03*
X589280Y61780D03*
X589280Y116020D03*
X576580Y116020D03*
X563880Y116020D03*
X551180Y116020D03*
X538480Y116020D03*
X525780Y116020D03*
X513080Y116020D03*
D14*
X324920Y76860D03*
X324920Y86360D03*
X324920Y95860D03*
X299920Y95860D03*
X299920Y86360D03*
X299920Y76860D03*
D15*
X660400Y47600D03*
X660400Y28600D03*
X970280Y27330D03*
X970280Y46330D03*
D16*
X321920Y45720D03*
X302920Y45720D03*
D17*
X563270Y151130D03*
X582270Y151130D03*
X271120Y124460D03*
X252120Y124460D03*
X269850Y45720D03*
X250850Y45720D03*
D18*
X117160Y32280D02*
X94660Y32280D01*
X94160Y144780D02*
X116660Y144780D01*
X116660Y107280D02*
X94160Y107280D01*
X94160Y69780D02*
X116660Y69780D01*
D19*
X1038322Y137748D03*
X1038322Y48676D03*
D20*
X175730Y32268D03*
X175730Y144780D03*
D21*
X635000Y147320D02*
X635000Y132080D01*
X660400Y132080D02*
X660400Y147320D01*
X685800Y147320D02*
X685800Y132080D01*
D22*
X698500Y28600D03*
X698500Y47600D03*
X925830Y47600D03*
X925830Y28600D03*
D21*
X749300Y30480D02*
X749300Y45720D01*
X774700Y45720D02*
X774700Y30480D01*
X800100Y30480D02*
X800100Y45720D01*
X825500Y45720D02*
X825500Y30480D01*
X850900Y30480D02*
X850900Y45720D01*
X876300Y45720D02*
X876300Y30480D01*
X749300Y132080D02*
X749300Y147320D01*
X774700Y147320D02*
X774700Y132080D01*
X800100Y132080D02*
X800100Y147320D01*
X825500Y147320D02*
X825500Y132080D01*
X850900Y132080D02*
X850900Y147320D01*
X876300Y147320D02*
X876300Y132080D01*
D23*
X1400810Y53340D02*
X1416050Y53340D01*
X1400810Y53340D02*
X1400810Y58420D01*
X1400812Y58560D01*
X1400818Y58700D01*
X1400827Y58840D01*
X1400841Y58979D01*
X1400858Y59118D01*
X1400879Y59256D01*
X1400904Y59394D01*
X1400933Y59531D01*
X1400965Y59667D01*
X1401002Y59802D01*
X1401042Y59936D01*
X1401085Y60069D01*
X1401133Y60201D01*
X1401183Y60332D01*
X1401238Y60461D01*
X1401296Y60588D01*
X1401357Y60714D01*
X1401422Y60838D01*
X1401491Y60960D01*
X1401562Y61080D01*
X1401637Y61198D01*
X1401715Y61315D01*
X1401797Y61429D01*
X1401881Y61540D01*
X1401969Y61649D01*
X1402059Y61756D01*
X1402153Y61861D01*
X1402249Y61962D01*
X1402348Y62061D01*
X1402449Y62157D01*
X1402554Y62251D01*
X1402661Y62341D01*
X1402770Y62429D01*
X1402881Y62513D01*
X1402995Y62595D01*
X1403112Y62673D01*
X1403230Y62748D01*
X1403350Y62819D01*
X1403472Y62888D01*
X1403596Y62953D01*
X1403722Y63014D01*
X1403849Y63072D01*
X1403978Y63127D01*
X1404109Y63177D01*
X1404241Y63225D01*
X1404374Y63268D01*
X1404508Y63308D01*
X1404643Y63345D01*
X1404779Y63377D01*
X1404916Y63406D01*
X1405054Y63431D01*
X1405192Y63452D01*
X1405331Y63469D01*
X1405470Y63483D01*
X1405610Y63492D01*
X1405750Y63498D01*
X1405890Y63500D01*
X1410970Y63500D01*
X1411119Y63481D01*
X1411268Y63459D01*
X1411416Y63432D01*
X1411564Y63402D01*
X1411710Y63368D01*
X1411856Y63330D01*
X1412001Y63288D01*
X1412144Y63243D01*
X1412287Y63194D01*
X1412427Y63141D01*
X1412567Y63084D01*
X1412705Y63024D01*
X1412841Y62960D01*
X1412976Y62893D01*
X1413109Y62822D01*
X1413240Y62747D01*
X1413368Y62670D01*
X1413495Y62589D01*
X1413620Y62504D01*
X1413742Y62417D01*
X1413862Y62326D01*
X1413980Y62232D01*
X1414095Y62135D01*
X1414208Y62035D01*
X1414318Y61932D01*
X1414425Y61827D01*
X1414529Y61718D01*
X1414631Y61607D01*
X1414729Y61493D01*
X1414825Y61377D01*
X1414917Y61258D01*
X1415007Y61137D01*
X1415093Y61014D01*
X1415176Y60888D01*
X1415255Y60760D01*
X1415332Y60630D01*
X1415404Y60499D01*
X1415474Y60365D01*
X1415539Y60230D01*
X1415602Y60093D01*
X1415660Y59954D01*
X1415715Y59814D01*
X1415766Y59672D01*
X1415814Y59529D01*
X1415858Y59385D01*
X1415898Y59240D01*
X1415934Y59094D01*
X1415966Y58947D01*
X1415995Y58799D01*
X1416019Y58651D01*
X1416040Y58502D01*
X1416057Y58352D01*
X1416070Y58202D01*
X1416079Y58052D01*
X1416084Y57901D01*
X1416085Y57751D01*
X1416082Y57600D01*
X1416075Y57450D01*
X1416064Y57300D01*
X1416050Y57150D01*
X1416050Y53340D01*
X1408430Y69850D02*
X1400810Y69850D01*
X1414485Y95758D02*
X1414487Y95814D01*
X1414493Y95870D01*
X1414503Y95925D01*
X1414516Y95979D01*
X1414533Y96033D01*
X1414554Y96085D01*
X1414579Y96135D01*
X1414607Y96184D01*
X1414638Y96230D01*
X1414673Y96274D01*
X1414710Y96316D01*
X1414751Y96355D01*
X1414794Y96391D01*
X1414839Y96424D01*
X1414886Y96453D01*
X1414936Y96480D01*
X1414987Y96503D01*
X1415040Y96522D01*
X1415094Y96537D01*
X1415149Y96549D01*
X1415204Y96557D01*
X1415260Y96561D01*
X1415316Y96561D01*
X1415372Y96557D01*
X1415427Y96549D01*
X1415482Y96537D01*
X1415536Y96522D01*
X1415589Y96503D01*
X1415640Y96480D01*
X1415689Y96453D01*
X1415737Y96424D01*
X1415782Y96391D01*
X1415825Y96355D01*
X1415866Y96316D01*
X1415903Y96274D01*
X1415938Y96230D01*
X1415969Y96184D01*
X1415997Y96135D01*
X1416022Y96085D01*
X1416043Y96033D01*
X1416060Y95979D01*
X1416073Y95925D01*
X1416083Y95870D01*
X1416089Y95814D01*
X1416091Y95758D01*
X1416089Y95702D01*
X1416083Y95646D01*
X1416073Y95591D01*
X1416060Y95537D01*
X1416043Y95483D01*
X1416022Y95431D01*
X1415997Y95381D01*
X1415969Y95332D01*
X1415938Y95286D01*
X1415903Y95242D01*
X1415866Y95200D01*
X1415825Y95161D01*
X1415782Y95125D01*
X1415737Y95092D01*
X1415690Y95063D01*
X1415640Y95036D01*
X1415589Y95013D01*
X1415536Y94994D01*
X1415482Y94979D01*
X1415427Y94967D01*
X1415372Y94959D01*
X1415316Y94955D01*
X1415260Y94955D01*
X1415204Y94959D01*
X1415149Y94967D01*
X1415094Y94979D01*
X1415040Y94994D01*
X1414987Y95013D01*
X1414936Y95036D01*
X1414886Y95063D01*
X1414839Y95092D01*
X1414794Y95125D01*
X1414751Y95161D01*
X1414710Y95200D01*
X1414673Y95242D01*
X1414638Y95286D01*
X1414607Y95332D01*
X1414579Y95381D01*
X1414554Y95431D01*
X1414533Y95483D01*
X1414516Y95537D01*
X1414503Y95591D01*
X1414493Y95646D01*
X1414487Y95702D01*
X1414485Y95758D01*
X1416050Y69850D02*
X1408430Y69850D01*
X1400810Y100330D02*
X1416050Y100330D01*
X1400810Y100330D02*
X1400810Y105410D01*
X1400812Y105550D01*
X1400818Y105690D01*
X1400827Y105830D01*
X1400841Y105969D01*
X1400858Y106108D01*
X1400879Y106246D01*
X1400904Y106384D01*
X1400933Y106521D01*
X1400965Y106657D01*
X1401002Y106792D01*
X1401042Y106926D01*
X1401085Y107059D01*
X1401133Y107191D01*
X1401183Y107322D01*
X1401238Y107451D01*
X1401296Y107578D01*
X1401357Y107704D01*
X1401422Y107828D01*
X1401491Y107950D01*
X1401562Y108070D01*
X1401637Y108188D01*
X1401715Y108305D01*
X1401797Y108419D01*
X1401881Y108530D01*
X1401969Y108639D01*
X1402059Y108746D01*
X1402153Y108851D01*
X1402249Y108952D01*
X1402348Y109051D01*
X1402449Y109147D01*
X1402554Y109241D01*
X1402661Y109331D01*
X1402770Y109419D01*
X1402881Y109503D01*
X1402995Y109585D01*
X1403112Y109663D01*
X1403230Y109738D01*
X1403350Y109809D01*
X1403472Y109878D01*
X1403596Y109943D01*
X1403722Y110004D01*
X1403849Y110062D01*
X1403978Y110117D01*
X1404109Y110167D01*
X1404241Y110215D01*
X1404374Y110258D01*
X1404508Y110298D01*
X1404643Y110335D01*
X1404779Y110367D01*
X1404916Y110396D01*
X1405054Y110421D01*
X1405192Y110442D01*
X1405331Y110459D01*
X1405470Y110473D01*
X1405610Y110482D01*
X1405750Y110488D01*
X1405890Y110490D01*
X1410970Y110490D01*
X1411110Y110488D01*
X1411250Y110482D01*
X1411390Y110473D01*
X1411529Y110459D01*
X1411668Y110442D01*
X1411806Y110421D01*
X1411944Y110396D01*
X1412081Y110367D01*
X1412217Y110335D01*
X1412352Y110298D01*
X1412486Y110258D01*
X1412619Y110215D01*
X1412751Y110167D01*
X1412882Y110117D01*
X1413011Y110062D01*
X1413138Y110004D01*
X1413264Y109943D01*
X1413388Y109878D01*
X1413510Y109809D01*
X1413630Y109738D01*
X1413748Y109663D01*
X1413865Y109585D01*
X1413979Y109503D01*
X1414090Y109419D01*
X1414199Y109331D01*
X1414306Y109241D01*
X1414411Y109147D01*
X1414512Y109051D01*
X1414611Y108952D01*
X1414707Y108851D01*
X1414801Y108746D01*
X1414891Y108639D01*
X1414979Y108530D01*
X1415063Y108419D01*
X1415145Y108305D01*
X1415223Y108188D01*
X1415298Y108070D01*
X1415369Y107950D01*
X1415438Y107828D01*
X1415503Y107704D01*
X1415564Y107578D01*
X1415622Y107451D01*
X1415677Y107322D01*
X1415727Y107191D01*
X1415775Y107059D01*
X1415818Y106926D01*
X1415858Y106792D01*
X1415895Y106657D01*
X1415927Y106521D01*
X1415956Y106384D01*
X1415981Y106246D01*
X1416002Y106108D01*
X1416019Y105969D01*
X1416033Y105830D01*
X1416042Y105690D01*
X1416048Y105550D01*
X1416050Y105410D01*
X1416050Y100330D01*
X1408430Y115570D02*
X1400810Y115570D01*
X1408430Y115570D02*
X1416050Y115570D01*
X1416050Y123190D01*
X1400810Y123190D02*
X1400810Y115570D01*
X1408430Y115570D02*
X1408430Y120650D01*
X1400810Y78740D02*
X1408430Y69850D01*
X1416050Y78740D01*
X1400604Y87630D02*
X1400606Y87756D01*
X1400612Y87882D01*
X1400622Y88008D01*
X1400636Y88133D01*
X1400653Y88258D01*
X1400675Y88383D01*
X1400701Y88506D01*
X1400730Y88629D01*
X1400763Y88750D01*
X1400801Y88871D01*
X1400841Y88990D01*
X1400886Y89108D01*
X1400934Y89225D01*
X1400986Y89340D01*
X1401042Y89453D01*
X1401101Y89565D01*
X1401163Y89674D01*
X1401229Y89782D01*
X1401298Y89887D01*
X1401371Y89991D01*
X1401447Y90091D01*
X1401526Y90190D01*
X1401608Y90286D01*
X1401692Y90379D01*
X1401780Y90470D01*
X1401871Y90558D01*
X1401964Y90642D01*
X1402060Y90724D01*
X1402159Y90803D01*
X1402259Y90879D01*
X1402363Y90952D01*
X1402468Y91021D01*
X1402576Y91087D01*
X1402685Y91149D01*
X1402797Y91208D01*
X1402910Y91264D01*
X1403025Y91316D01*
X1403142Y91364D01*
X1403260Y91409D01*
X1403379Y91449D01*
X1403500Y91487D01*
X1403621Y91520D01*
X1403744Y91549D01*
X1403867Y91575D01*
X1403992Y91597D01*
X1404117Y91614D01*
X1404242Y91628D01*
X1404368Y91638D01*
X1404494Y91644D01*
X1404620Y91646D01*
X1404746Y91644D01*
X1404872Y91638D01*
X1404998Y91628D01*
X1405123Y91614D01*
X1405248Y91597D01*
X1405373Y91575D01*
X1405496Y91549D01*
X1405619Y91520D01*
X1405740Y91487D01*
X1405861Y91449D01*
X1405980Y91409D01*
X1406098Y91364D01*
X1406215Y91316D01*
X1406330Y91264D01*
X1406443Y91208D01*
X1406555Y91149D01*
X1406664Y91087D01*
X1406772Y91021D01*
X1406877Y90952D01*
X1406981Y90879D01*
X1407081Y90803D01*
X1407180Y90724D01*
X1407276Y90642D01*
X1407369Y90558D01*
X1407460Y90470D01*
X1407548Y90379D01*
X1407632Y90286D01*
X1407714Y90190D01*
X1407793Y90091D01*
X1407869Y89991D01*
X1407942Y89887D01*
X1408011Y89782D01*
X1408077Y89674D01*
X1408139Y89565D01*
X1408198Y89453D01*
X1408254Y89340D01*
X1408306Y89225D01*
X1408354Y89108D01*
X1408399Y88990D01*
X1408439Y88871D01*
X1408477Y88750D01*
X1408510Y88629D01*
X1408539Y88506D01*
X1408565Y88383D01*
X1408587Y88258D01*
X1408604Y88133D01*
X1408618Y88008D01*
X1408628Y87882D01*
X1408634Y87756D01*
X1408636Y87630D01*
X1408634Y87504D01*
X1408628Y87378D01*
X1408618Y87252D01*
X1408604Y87127D01*
X1408587Y87002D01*
X1408565Y86877D01*
X1408539Y86754D01*
X1408510Y86631D01*
X1408477Y86510D01*
X1408439Y86389D01*
X1408399Y86270D01*
X1408354Y86152D01*
X1408306Y86035D01*
X1408254Y85920D01*
X1408198Y85807D01*
X1408139Y85695D01*
X1408077Y85586D01*
X1408011Y85478D01*
X1407942Y85373D01*
X1407869Y85269D01*
X1407793Y85169D01*
X1407714Y85070D01*
X1407632Y84974D01*
X1407548Y84881D01*
X1407460Y84790D01*
X1407369Y84702D01*
X1407276Y84618D01*
X1407180Y84536D01*
X1407081Y84457D01*
X1406981Y84381D01*
X1406877Y84308D01*
X1406772Y84239D01*
X1406664Y84173D01*
X1406555Y84111D01*
X1406443Y84052D01*
X1406330Y83996D01*
X1406215Y83944D01*
X1406098Y83896D01*
X1405980Y83851D01*
X1405861Y83811D01*
X1405740Y83773D01*
X1405619Y83740D01*
X1405496Y83711D01*
X1405373Y83685D01*
X1405248Y83663D01*
X1405123Y83646D01*
X1404998Y83632D01*
X1404872Y83622D01*
X1404746Y83616D01*
X1404620Y83614D01*
X1404494Y83616D01*
X1404368Y83622D01*
X1404242Y83632D01*
X1404117Y83646D01*
X1403992Y83663D01*
X1403867Y83685D01*
X1403744Y83711D01*
X1403621Y83740D01*
X1403500Y83773D01*
X1403379Y83811D01*
X1403260Y83851D01*
X1403142Y83896D01*
X1403025Y83944D01*
X1402910Y83996D01*
X1402797Y84052D01*
X1402685Y84111D01*
X1402576Y84173D01*
X1402468Y84239D01*
X1402363Y84308D01*
X1402259Y84381D01*
X1402159Y84457D01*
X1402060Y84536D01*
X1401964Y84618D01*
X1401871Y84702D01*
X1401780Y84790D01*
X1401692Y84881D01*
X1401608Y84974D01*
X1401526Y85070D01*
X1401447Y85169D01*
X1401371Y85269D01*
X1401298Y85373D01*
X1401229Y85478D01*
X1401163Y85586D01*
X1401101Y85695D01*
X1401042Y85807D01*
X1400986Y85920D01*
X1400934Y86035D01*
X1400886Y86152D01*
X1400841Y86270D01*
X1400801Y86389D01*
X1400763Y86510D01*
X1400730Y86631D01*
X1400701Y86754D01*
X1400675Y86877D01*
X1400653Y87002D01*
X1400636Y87127D01*
X1400622Y87252D01*
X1400612Y87378D01*
X1400606Y87504D01*
X1400604Y87630D01*
X1408224Y87630D02*
X1408226Y87756D01*
X1408232Y87882D01*
X1408242Y88008D01*
X1408256Y88133D01*
X1408273Y88258D01*
X1408295Y88383D01*
X1408321Y88506D01*
X1408350Y88629D01*
X1408383Y88750D01*
X1408421Y88871D01*
X1408461Y88990D01*
X1408506Y89108D01*
X1408554Y89225D01*
X1408606Y89340D01*
X1408662Y89453D01*
X1408721Y89565D01*
X1408783Y89674D01*
X1408849Y89782D01*
X1408918Y89887D01*
X1408991Y89991D01*
X1409067Y90091D01*
X1409146Y90190D01*
X1409228Y90286D01*
X1409312Y90379D01*
X1409400Y90470D01*
X1409491Y90558D01*
X1409584Y90642D01*
X1409680Y90724D01*
X1409779Y90803D01*
X1409879Y90879D01*
X1409983Y90952D01*
X1410088Y91021D01*
X1410196Y91087D01*
X1410305Y91149D01*
X1410417Y91208D01*
X1410530Y91264D01*
X1410645Y91316D01*
X1410762Y91364D01*
X1410880Y91409D01*
X1410999Y91449D01*
X1411120Y91487D01*
X1411241Y91520D01*
X1411364Y91549D01*
X1411487Y91575D01*
X1411612Y91597D01*
X1411737Y91614D01*
X1411862Y91628D01*
X1411988Y91638D01*
X1412114Y91644D01*
X1412240Y91646D01*
X1412366Y91644D01*
X1412492Y91638D01*
X1412618Y91628D01*
X1412743Y91614D01*
X1412868Y91597D01*
X1412993Y91575D01*
X1413116Y91549D01*
X1413239Y91520D01*
X1413360Y91487D01*
X1413481Y91449D01*
X1413600Y91409D01*
X1413718Y91364D01*
X1413835Y91316D01*
X1413950Y91264D01*
X1414063Y91208D01*
X1414175Y91149D01*
X1414284Y91087D01*
X1414392Y91021D01*
X1414497Y90952D01*
X1414601Y90879D01*
X1414701Y90803D01*
X1414800Y90724D01*
X1414896Y90642D01*
X1414989Y90558D01*
X1415080Y90470D01*
X1415168Y90379D01*
X1415252Y90286D01*
X1415334Y90190D01*
X1415413Y90091D01*
X1415489Y89991D01*
X1415562Y89887D01*
X1415631Y89782D01*
X1415697Y89674D01*
X1415759Y89565D01*
X1415818Y89453D01*
X1415874Y89340D01*
X1415926Y89225D01*
X1415974Y89108D01*
X1416019Y88990D01*
X1416059Y88871D01*
X1416097Y88750D01*
X1416130Y88629D01*
X1416159Y88506D01*
X1416185Y88383D01*
X1416207Y88258D01*
X1416224Y88133D01*
X1416238Y88008D01*
X1416248Y87882D01*
X1416254Y87756D01*
X1416256Y87630D01*
X1416254Y87504D01*
X1416248Y87378D01*
X1416238Y87252D01*
X1416224Y87127D01*
X1416207Y87002D01*
X1416185Y86877D01*
X1416159Y86754D01*
X1416130Y86631D01*
X1416097Y86510D01*
X1416059Y86389D01*
X1416019Y86270D01*
X1415974Y86152D01*
X1415926Y86035D01*
X1415874Y85920D01*
X1415818Y85807D01*
X1415759Y85695D01*
X1415697Y85586D01*
X1415631Y85478D01*
X1415562Y85373D01*
X1415489Y85269D01*
X1415413Y85169D01*
X1415334Y85070D01*
X1415252Y84974D01*
X1415168Y84881D01*
X1415080Y84790D01*
X1414989Y84702D01*
X1414896Y84618D01*
X1414800Y84536D01*
X1414701Y84457D01*
X1414601Y84381D01*
X1414497Y84308D01*
X1414392Y84239D01*
X1414284Y84173D01*
X1414175Y84111D01*
X1414063Y84052D01*
X1413950Y83996D01*
X1413835Y83944D01*
X1413718Y83896D01*
X1413600Y83851D01*
X1413481Y83811D01*
X1413360Y83773D01*
X1413239Y83740D01*
X1413116Y83711D01*
X1412993Y83685D01*
X1412868Y83663D01*
X1412743Y83646D01*
X1412618Y83632D01*
X1412492Y83622D01*
X1412366Y83616D01*
X1412240Y83614D01*
X1412114Y83616D01*
X1411988Y83622D01*
X1411862Y83632D01*
X1411737Y83646D01*
X1411612Y83663D01*
X1411487Y83685D01*
X1411364Y83711D01*
X1411241Y83740D01*
X1411120Y83773D01*
X1410999Y83811D01*
X1410880Y83851D01*
X1410762Y83896D01*
X1410645Y83944D01*
X1410530Y83996D01*
X1410417Y84052D01*
X1410305Y84111D01*
X1410196Y84173D01*
X1410088Y84239D01*
X1409983Y84308D01*
X1409879Y84381D01*
X1409779Y84457D01*
X1409680Y84536D01*
X1409584Y84618D01*
X1409491Y84702D01*
X1409400Y84790D01*
X1409312Y84881D01*
X1409228Y84974D01*
X1409146Y85070D01*
X1409067Y85169D01*
X1408991Y85269D01*
X1408918Y85373D01*
X1408849Y85478D01*
X1408783Y85586D01*
X1408721Y85695D01*
X1408662Y85807D01*
X1408606Y85920D01*
X1408554Y86035D01*
X1408506Y86152D01*
X1408461Y86270D01*
X1408421Y86389D01*
X1408383Y86510D01*
X1408350Y86631D01*
X1408321Y86754D01*
X1408295Y86877D01*
X1408273Y87002D01*
X1408256Y87127D01*
X1408242Y87252D01*
X1408232Y87378D01*
X1408226Y87504D01*
X1408224Y87630D01*
D22*
X615950Y27330D03*
X615950Y46330D03*
D21*
X43180Y115570D02*
X27940Y115570D01*
X27940Y90170D02*
X43180Y90170D01*
X43180Y64770D02*
X27940Y64770D01*
D14*
X449780Y150470D03*
X449780Y140970D03*
X449780Y131470D03*
X474780Y131470D03*
X474780Y150470D03*
D24*
X402590Y149780D02*
X402590Y134700D01*
X377190Y134700D02*
X377190Y149780D01*
D25*
X1249740Y55690D03*
X1249740Y62190D03*
X1249740Y68690D03*
X1249740Y75190D03*
X1249740Y81690D03*
X1249740Y88190D03*
X1249740Y94690D03*
X1249740Y101190D03*
X1249740Y107690D03*
X1249740Y114190D03*
X1249740Y120690D03*
X1249740Y127190D03*
X1178500Y127190D03*
X1178500Y120690D03*
X1178500Y114190D03*
X1178500Y107690D03*
X1178500Y101190D03*
X1178500Y94690D03*
X1178500Y88190D03*
X1178500Y81690D03*
X1178500Y75190D03*
X1178500Y68690D03*
X1178500Y62190D03*
X1178500Y55690D03*
D26*
X447040Y52470D03*
X447040Y26270D03*
D27*
X1216260Y25400D03*
X1242460Y25400D03*
X1144670Y151130D03*
X1118470Y151130D03*
D12*
X1182480Y25400D03*
X1164480Y25400D03*
X1175910Y151130D03*
X1193910Y151130D03*
D28*
X513080Y91440D03*
X563880Y78740D03*
X499110Y116840D03*
X424180Y15240D03*
X377190Y85090D03*
X227330Y101600D03*
X995680Y26670D03*
X1268730Y111760D03*
X610870Y118110D03*
X679450Y62230D03*
X727710Y58420D03*
X900430Y57150D03*
X901700Y111760D03*
X1205230Y101600D03*
X1267460Y72390D03*
X524510Y30480D03*
X346710Y86360D03*
X217170Y144780D03*
X429260Y116840D03*
X62230Y154940D03*
X1141730Y105410D03*
X1144270Y31750D03*
X1266190Y34290D03*
X1093470Y142240D03*
X1214120Y146050D03*
X144780Y33020D03*
X147320Y88900D03*
X146050Y142240D03*
X511810Y148590D03*
X994410Y152400D03*
X589280Y34290D03*
X406400Y50800D03*
X1200150Y25400D03*
X1214120Y83820D03*
X736600Y101600D03*
X551180Y133350D03*
X600710Y93980D03*
X598170Y22860D03*
X411480Y17780D03*
M02*
