G04 EAGLE Gerber RS-274X export*
G75*
%MOMM*%
%FSLAX34Y34*%
%LPD*%
%INSoldermask Bottom*%
%IPPOS*%
%AMOC8*
5,1,8,0,0,1.08239X$1,22.5*%
G01*
%ADD10C,2.895600*%
%ADD11C,2.453200*%
%ADD12R,2.453200X2.453200*%
%ADD13C,3.203200*%
%ADD14C,1.727200*%
%ADD15C,1.711200*%
%ADD16C,0.959600*%


D10*
X1446530Y156210D03*
X1447800Y21590D03*
X21590Y156210D03*
X21590Y21590D03*
D11*
X94660Y32280D02*
X117160Y32280D01*
X116660Y144780D02*
X94160Y144780D01*
X94160Y107280D02*
X116660Y107280D01*
X116660Y69780D02*
X94160Y69780D01*
D12*
X1038322Y137748D03*
X1038322Y48676D03*
D13*
X175730Y32268D03*
X175730Y144780D03*
D14*
X635000Y147320D02*
X635000Y132080D01*
X660400Y132080D02*
X660400Y147320D01*
X685800Y147320D02*
X685800Y132080D01*
X749300Y45720D02*
X749300Y30480D01*
X774700Y30480D02*
X774700Y45720D01*
X800100Y45720D02*
X800100Y30480D01*
X825500Y30480D02*
X825500Y45720D01*
X850900Y45720D02*
X850900Y30480D01*
X876300Y30480D02*
X876300Y45720D01*
X749300Y132080D02*
X749300Y147320D01*
X774700Y147320D02*
X774700Y132080D01*
X800100Y132080D02*
X800100Y147320D01*
X825500Y147320D02*
X825500Y132080D01*
X850900Y132080D02*
X850900Y147320D01*
X876300Y147320D02*
X876300Y132080D01*
X43180Y115570D02*
X27940Y115570D01*
X27940Y90170D02*
X43180Y90170D01*
X43180Y64770D02*
X27940Y64770D01*
D15*
X402590Y134700D02*
X402590Y149780D01*
X377190Y149780D02*
X377190Y134700D01*
D16*
X513080Y91440D03*
X563880Y78740D03*
X499110Y116840D03*
X424180Y15240D03*
X377190Y85090D03*
X227330Y101600D03*
X995680Y26670D03*
X1268730Y111760D03*
X610870Y118110D03*
X679450Y62230D03*
X727710Y58420D03*
X900430Y57150D03*
X901700Y111760D03*
X1205230Y101600D03*
X1267460Y72390D03*
X524510Y30480D03*
X346710Y86360D03*
X217170Y144780D03*
X429260Y116840D03*
X62230Y154940D03*
X1141730Y105410D03*
X1144270Y31750D03*
X1266190Y34290D03*
X1093470Y142240D03*
X1214120Y146050D03*
X144780Y33020D03*
X147320Y88900D03*
X146050Y142240D03*
X511810Y148590D03*
X994410Y152400D03*
X589280Y34290D03*
X406400Y50800D03*
X1200150Y25400D03*
X1214120Y83820D03*
X736600Y101600D03*
X551180Y133350D03*
X600710Y93980D03*
X598170Y22860D03*
X411480Y17780D03*
M02*
